<svg width="582.01" height="119.86" viewBox="0 0 582.01 119.86" xmlns="http://www.w3.org/2000/svg" xmlns:xlink="http://www.w3.org/1999/xlink" overflow="hidden"><style>
.MsftOfcThm_Background1_Fill {
 fill:#FFFFFF; 
}
</style>
<defs></defs><g><path d="M9.05 98.51C3.64 98.51 1.28 94.63 0.52 93.87-0.27 92.3-0.27 90.76 1.28 89.19 2.05 87.65 16.04 67.48 22.25 58.94 28.46 50.41 44.73 29.47 54.05 21.7 64.14 13.95 67.24 11.63 70.35 10.86 73.45 10.07 78.09 7.75 85.86 11.63 93.6 16.27 96.7 20.94 99.82 25.59 102.91 30.24 103.69 34.9 104.49 37.21 105.23 39.54 107.58 41.1 110.69 40.32 114.55 40.32 116.89 39.53 119.98 40.32 122.32 41.1 125.42 42.63 124.64 48.09 123.87 52.73 118.45 58.15 116.9 61.26 115.34 64.36 113.79 66.71 114.56 72.13 116.13 77.56 119.23 87.64 122.33 93.86 125.43 100.06 128.53 103.16 125.43 111.69 122.33 120.23 110.7 119.45 106.82 117.12 103.71 114.81 99.83 108.59 97.51 100.82 95.2 93.07 92.08 83.76 91.31 80.68 89.75 76.78 85.88 73.67 82.78 73.67 79.67 74.45 76.57 76.78 70.37 79.09 61.06 82.22 53.27 84.55 44.76 86.09 36.22 87.65 27.69 88.4 26.15 89.18 23.82 89.97 22.28 89.97 21.49 91.5 19.15 93.08 16.79 98.51 9.05 98.51M55.6 45.76C51.71 49.64 44.73 57.4 43.97 59.73 42.38 62.83 43.97 65.15 45.5 65.15 47.07 65.93 48.6 65.93 53.24 65.15 57.93 64.37 74.98 57.4 78.08 55.84 81.17 54.3 81.17 51.18 80.42 48.1 80.42 46.53 78.86 44.2 77.32 41.89 76.53 39.55 73.43 35.68 70.33 36.46 64.92 37.21 60.25 41.88 55.6 45.76" class="MsftOfcThm_Background1_Fill" fill="#FFFFFF"/><path d="M126.19 39.54C128.52 44.2 134.73 43.43 139.39 43.43 143.26 43.43 151.79 42.64 154.89 41.89 158 41.89 161.88 43.43 161.88 48.1 161.88 53.52 161.11 70.57 161.11 79.88 161.11 89.19 162.67 103.17 163.42 107.82 164.22 113.24 164.99 117.13 172.73 116.36 180.5 116.36 184.37 111.7 185.93 109.36 186.72 107.04 186.72 102.4 186.72 98.5 185.93 93.87 183.62 83.77 182.83 77.57 182.06 71.36 181.27 53.52 182.06 48.87 182.83 43.43 186.72 38.78 192.15 37.21 197.56 34.9 208.42 31.78 215.41 30.24 223.18 27.9 242.55 22.48 248.77 21.7 255.76 20.94 258.87 20.94 262.74 20.94 265.85 21.7 274.38 24.04 279.03 18.6 283.7 13.95 283.7 10.07 283.7 7.75 283.7 5.41 279.8-5.32907e-15 273.6-5.32907e-15 267.39-5.32907e-15 256.54-5.32907e-15 242.56 3.86 228.62 7.75 207.66 12.4 199.9 13.95 191.37 16.27 189.83 17.05 188.26 16.27 185.95 15.5 185.17 15.5 185.17 13.18 185.94 10.86 186.73 8.53 186.73 5.42 186.73 3.08 184.39 0.76 180.52 2.33 177.41 4.66 173.53 8.54 171.21 12.41 168.88 16.28 167.32 20.17 161.9 20.95 156.47 21.71 151.81 21.71 147.96 20.95 144.07 20.95 140.97 19.39 137.09 22.49 133.2 24.81 128.55 31.01 127 34.12 124.63 38 126.19 38.79 126.19 39.54" class="MsftOfcThm_Background1_Fill" fill="#FFFFFF"/><path d="M252.63 38.79C248.76 39.55 249.54 38 247.23 39.55 244.1 41.11 237.92 48.11 234.8 51.19 231.7 55.06 230.93 55.06 228.6 58.95 226.27 63.62 227.83 64.38 227.83 66.73 227.04 68.26 223.93 86.88 225.5 93.88 226.27 100.08 227.83 110.15 237.13 114.82 247.23 119.46 258.86 121.78 274.37 117.92 289.88 113.25 313.93 98.51 320.14 93.88 325.57 90.77 327.11 93.09 327.9 94.64 327.9 96.98 327.9 102.41 329.44 105.51 330.21 108.61 337.98 109.37 341.87 106.27 345.73 103.18 347.3 101.63 348.84 98.52 349.61 94.64 348.08 88.43 347.3 86.11 347.3 83.78 346.51 78.35 348.09 76.04 349.62 73.69 351.95 71.37 355.05 71.37 357.38 72.16 369.02 76.8 375.24 79.11 381.45 80.7 389.98 84.57 393.08 85.34 397.72 86.88 401.61 89.99 405.48 92.31 409.35 94.64 415.55 96.98 421.77 92.31 428.75 86.88 433.44 79.11 434.97 75.25 435.76 71.36 434.97 68.26 436.54 65.94 437.28 62.84 438.07 62.84 440.38 62.84 442.71 62.06 452.02 60.53 456.68 58.95 461.34 57.41 465.21 57.41 465.21 62.84 466 68.26 466 95.41 465.21 103.18 464.44 110.94 466 114.03 471.42 113.25 476.08 112.47 483.05 106.26 484.62 102.41 485.38 96.98 483.83 90.77 483.83 83 483.83 74.47 483.04 62.06 484.62 58.96 486.16 55.86 490.05 53.54 497.79 51.97 504.78 50.43 507.1 50.43 510.99 48.12 514.88 46.55 519.52 41.13 520.29 38.02 521.08 34.92 520.29 27.93 515.65 28.71 510.21 30.27 503.24 32.61 496.25 34.14 490.05 34.93 468.32 38.03 462.12 38.81 455.12 39.57 451.26 40.35 448.15 41.13 444.26 42.67 440.38 47.34 438.85 49.66 437.28 51.97 432.64 54.33 432.64 50.44 432.64 45.01 432.64 32.61 431.87 23.29 431.07 17.85 424.88 21.73 423.34 23.29 421.77 24.07 414.8 31.81 414.8 33.38 414.03 35.69 413.24 37.24 413.24 45.01 414.03 51.97 414.03 55.08 413.24 58.19 413.24 60.54 410.91 63.64 403.14 63.64 394.63 63.64 383.77 58.97 380.65 58.19 376.78 56.65 354.28 45.01 349.62 43.45 345.73 41.13 341.88 39.56 337.99 43.45 334.1 48.12 329.45 52.76 327.9 55.08 326.34 58.19 325.57 65.17 325.57 69.84 326.34 72.93 323.24 72.17 319.36 73.7 317.05 74.48 312.37 80.71 305.4 84.58 299.97 88.44 289.11 94.65 274.37 97.74 266.63 100.09 257.28 99.3 254.97 96.21 251.86 93.1 254.2 88.44 256.53 86.12 258.07 84.58 268.17 79.12 276.7 74.48 285.21 70.59 292.99 61.29 293.76 56.64 294.55 51.97 289.89 47.33 286.02 49.65 279.79 52.75 274.38 57.41 271.26 58.96 268.17 61.29 266.63 62.07 264.29 62.07 261.19 62.07 258.08 58.96 259.63 55.86 261.19 53.54 267.37 51.2 271.26 47.33 275.92 43.44 285.22 38.02 286.02 32.6 286.79 27.92 280.58 24.06 276.71 26.37 268.17 30.24 252.63 38.79 252.63 38.79" class="MsftOfcThm_Background1_Fill" fill="#FFFFFF"/><path d="M531.94 45.76C540.47 42.65 542.8 41.89 544.34 42.65 545.88 42.65 544.34 44.99 549 44.99 553.64 44.99 563.74 46.53 569.94 49.64 576.15 51.95 583.9 62.05 581.6 75.25 579.26 88.42 568.4 100.83 559.86 106.26 552.1 110.93 542.03 116.36 522.62 114.82 503.24 114.03 504.01 98.51 504.78 90.76 505.57 82.99 510.99 73.68 511.77 72.15 512.54 70.58 512.54 69.82 510.21 69.82 508.67 69.03 507.11 66.73 507.9 64.38 508.67 61.28 511.77 57.41 516.43 52.74 519.51 49.63 523.39 48.1 531.94 45.76M529.59 65.15C525.7 67.48 524.16 76.79 523.39 79.88 522.6 83.77 521.06 93.87 530.33 94.62 538.9 95.39 548.99 93.07 554.41 87.65 560.64 82.22 562.94 74.45 559.84 69.81 556.74 65.92 548.98 64.37 545.11 64.37 541.22 64.37 533.48 63.61 529.59 65.15" class="MsftOfcThm_Background1_Fill" fill="#FFFFFF"/></g></svg>